# xmcd
#
# Track frame offsets:
# 150
# 16192
# 32572
# 49675
# 61375
# 80515
# 94910
# 116140
# 130460
# 146700
# 159670
#
# Disc length: 2385 seconds
#
#
# Revision: 0
# Processed by: cddbd v1.5.2PL0 Copyright (c) Steve Scherf et al.
# Submitted via: FreeRIP 2.951 
#
DISCID=95094f0b
DTITLE=Bob Marley and The Wailers - Rastaman Vibration
DYEAR=1976
DGENRE=Reggae
TTITLE0=Positive Vibration
TTITLE1=Roots, Rock, Reggae
TTITLE2=Johnny Was
TTITLE3=Cry to Me
TTITLE4=Want More
TTITLE5=Crazy Baldhead
TTITLE6=Who the Cap Fit
TTITLE7=Night Shift
TTITLE8=War
TTITLE9=Rat Race
TTITLE10=Jah Live
EXTD=
EXTT0=
EXTT1=
EXTT2=
EXTT3=
EXTT4=
EXTT5=
EXTT6=
EXTT7=
EXTT8=
EXTT9=
EXTT10=
PLAYORDER=
